<svg width="512" height="512" viewBox="0 0 512 512" xmlns="http://www.w3.org/2000/svg">
  <rect width="512" height="512" rx="112" fill="#1B7A43"/>
  <!-- pin de localisation -->
  <path d="M256 96c-62 0-112 50-112 112 0 78 112 208 112 208s112-130 112-208c0-62-50-112-112-112z"
        fill="#EAF3EC"/>
  <!-- feuille / recyclage à l'intérieur -->
  <g transform="translate(256,208)">
    <circle r="58" fill="#1B7A43"/>
    <g fill="none" stroke="#0FA3A3" stroke-width="14" stroke-linecap="round">
      <path d="M-30 -8 A 34 34 0 0 1 22 -20"/>
      <path d="M28 6 A 34 34 0 0 1 -2 34"/>
      <path d="M-26 24 A 34 34 0 0 1 -34 -8"/>
    </g>
    <g fill="#0FA3A3">
      <path d="M22 -20 l 14 -2 l -8 12 z"/>
      <path d="M-2 34 l -2 14 l 12 -8 z"/>
      <path d="M-34 -8 l -10 -10 l 14 -4 z"/>
    </g>
  </g>
</svg>
